<?xml version="1.0" standalone="no"?>
<!DOCTYPE svg PUBLIC "-//W3C//DTD SVG 20010904//EN"
 "http://www.w3.org/TR/2001/REC-SVG-20010904/DTD/svg10.dtd">
<svg version="1.0" xmlns="http://www.w3.org/2000/svg"
 width="134.000000pt" height="134.000000pt" viewBox="0 0 134.000000 134.000000"
 preserveAspectRatio="xMidYMid meet">
<metadata>
Created by potrace 1.14, written by Peter Selinger 2001-2017
</metadata>
<g transform="translate(0.000000,134.000000) scale(0.100000,-0.100000)"
fill="#000000" stroke="none">
<path d="M490 1324 c-230 -50 -400 -223 -465 -477 -20 -78 -24 -110 -21 -212
4 -131 19 -192 69 -293 32 -64 129 -182 151 -182 6 0 26 42 43 93 17 50 72
211 123 357 51 146 115 331 142 413 l50 147 47 1 c25 0 62 1 83 2 l36 2 50
-145 c98 -283 231 -666 266 -769 20 -58 38 -106 39 -108 6 -5 68 60 97 102 59
86 109 213 126 317 7 50 7 201 -1 238 -3 14 -7 37 -10 53 -10 53 -47 138 -86
196 -77 115 -179 188 -342 243 -79 26 -109 31 -212 33 -76 2 -144 -2 -185 -11z"/>
<path d="M603 948 c-12 -35 -61 -175 -109 -311 -47 -136 -84 -250 -82 -253 3
-2 120 -3 260 -2 l255 3 -74 210 c-40 116 -89 256 -109 313 l-36 102 -42 0
-41 0 -22 -62z"/>
<path d="M376 292 c-13 -21 -65 -185 -61 -192 9 -14 136 -60 208 -76 72 -16
216 -21 272 -10 66 13 79 16 114 27 31 10 110 46 119 54 2 2 -1 11 -7 22 -5
10 -22 55 -37 101 l-27 82 -288 0 c-158 0 -290 -4 -293 -8z"/>
</g>
</svg>
